# xmcd
#
# Track frame offsets:
#	150
#	16569
#	34640
#	52685
#	69558
#	83881
#	105395
#	129474
#	149731
#	168526
#	187372
#	204969
#	220648
#	239559
#	253204
#	269950
#	287132
#	310008
#	326350
#
# Disc length: 4586 seconds
#
# Revision: 1
# Processed by: cddbd v1.5.2PL0 Copyright (c) Steve Scherf et al.
# Submitted via: audiograbber 1.83.01
#
DISCID=1a11e813
DTITLE=Алексей Степин - Собрание Сочинений
DYEAR=2002
DGENRE=Chanson
TTITLE0=Дорога да гитара
TTITLE1=Колышешь
TTITLE2=Корабли
TTITLE3=Мальчиши-крепыши
TTITLE4=Именины
TTITLE5=Доля-долюшка
TTITLE6=Дождь (снова кабак)
TTITLE7=Озеро лебедей
TTITLE8=Поезда
TTITLE9=За свободу!
TTITLE10=Джипарик
TTITLE11=Гули-гули
TTITLE12=Любил-любил
TTITLE13=Не плачь, Анюта
TTITLE14=Машка (крюгер)
TTITLE15=Помидорка
TTITLE16=А я возьму гармонь (Люся)
TTITLE17=Жиганская душа
TTITLE18=Волчонок
EXTD=
EXTT0=
EXTT1=
EXTT2=
EXTT3=
EXTT4=
EXTT5=
EXTT6=
EXTT7=
EXTT8=
EXTT9=
EXTT10=
EXTT11=
EXTT12=
EXTT13=
EXTT14=
EXTT15=
EXTT16=
EXTT17=
EXTT18=
PLAYORDER=
